<svg width="70" height="63" viewBox="0 0 70 63" fill="none" xmlns="http://www.w3.org/2000/svg">
<rect width="34" height="14" transform="matrix(-1 0 0 1 70 0)" fill="#FF3331"/>
<rect width="34" height="14" transform="matrix(-1 0 0 1 34 0)" fill="#FF3331"/>
<rect width="29" height="15" transform="matrix(-1 0 0 1 70 16)" fill="#FF3331"/>
<rect width="34" height="15" transform="matrix(-1 0 0 1 39 16)" fill="#FF3331"/>
<rect width="34" height="14" transform="matrix(-1 0 0 1 70 33)" fill="#FF3331"/>
<rect width="34" height="14" transform="matrix(-1 0 0 1 34 33)" fill="#FF3331"/>
<rect width="29" height="14" transform="matrix(-1 0 0 1 70 49)" fill="#FF3331"/>
<rect width="34" height="14" transform="matrix(-1 0 0 1 39 49)" fill="#FF3331"/>
</svg>
