<svg width="71" height="63" viewBox="0 0 71 63" fill="none" xmlns="http://www.w3.org/2000/svg">
<rect width="34" height="14" transform="matrix(-1 0 0 1 71 0)" fill="#494FD5"/>
<rect width="34" height="14" transform="matrix(-1 0 0 1 34 0)" fill="#494FD5"/>
<rect width="29" height="15" transform="matrix(-1 0 0 1 71 16)" fill="#494FD5"/>
<rect width="34" height="15" transform="matrix(-1 0 0 1 38.9999 16)" fill="#494FD5"/>
<rect width="34" height="14" transform="matrix(-1 0 0 1 71 33)" fill="#494FD5"/>
<rect width="34" height="14" transform="matrix(-1 0 0 1 34 33)" fill="#494FD5"/>
<rect width="29" height="14" transform="matrix(-1 0 0 1 71 49)" fill="#494FD5"/>
<rect width="34" height="14" transform="matrix(-1 0 0 1 38.9999 49)" fill="#494FD5"/>
</svg>
