<svg width="60" height="60" viewBox="0 0 60 60" fill="none" xmlns="http://www.w3.org/2000/svg">
<g clip-path="url(#clip0_19_136)">
<mask id="mask0_19_136" style="mask-type:luminance" maskUnits="userSpaceOnUse" x="-12" y="-12" width="84" height="84">
<path d="M-12 -11.9999H72V72H-12V-11.9999Z" fill="white"/>
</mask>
<g mask="url(#mask0_19_136)">
<path d="M60 30C60 13.4315 46.5685 3.8147e-05 30 3.8147e-05C13.4315 3.8147e-05 0 13.4315 0 30C0 44.0694 9.6858 55.8746 22.7527 59.1166V39.1675H16.5665V30H22.7527V26.0497C22.7527 15.8387 27.3737 11.1059 37.3985 11.1059C39.299 11.1059 42.5785 11.4785 43.9201 11.8512V20.1617C43.212 20.0872 41.9822 20.0499 40.4543 20.0499C35.5351 20.0499 33.6344 21.9132 33.6344 26.7579V30H43.4335L41.7502 39.1675H33.6344V59.7803C48.4888 57.9862 60 45.3382 60 30Z" fill="#0866FF"/>
<path d="M41.7501 39.1676L43.4336 30.0001H33.6345V26.7578C33.6345 21.9132 35.535 20.0499 40.4542 20.0499C41.9822 20.0499 43.2119 20.0871 43.92 20.1617V11.8513C42.5784 11.4786 39.299 11.1059 37.3984 11.1059C27.3737 11.1059 22.7526 15.8388 22.7526 26.0498V30.0001H16.5664V39.1676H22.7526V59.1166C25.0738 59.6924 27.5008 60.0001 29.9999 60.0001C31.2304 60.0001 32.4429 59.9242 33.6345 59.7803V39.1676H41.7501Z" fill="white"/>
</g>
</g>
<defs>
<clipPath id="clip0_19_136">
<rect width="60" height="60" fill="white"/>
</clipPath>
</defs>
</svg>
