<svg width="50" height="50" viewBox="0 0 50 50" fill="none" xmlns="http://www.w3.org/2000/svg">
<path d="M16.6667 6.25V7.11806M7.11806 16.6667H6.25M9.72223 9.72223L8.85417 8.85417M23.611 9.72223L24.4792 8.85417M9.72223 23.611L8.85417 24.4792M20.2759 14.5833C19.5555 13.3379 18.2089 12.5 16.6667 12.5C14.3655 12.5 12.5 14.3655 12.5 16.6667C12.5 18.2089 13.3379 19.5555 14.5833 20.2759M12.5 31.25L25.8506 18.7894C26.6519 18.0416 27.0525 17.6676 27.5085 17.5264C27.9102 17.402 28.3398 17.402 28.7415 17.5264C29.1975 17.6676 29.5981 18.0416 30.3994 18.7894L43.75 31.25M16.6667 27.361V40.4167C16.6667 41.5835 16.6667 42.1669 16.8937 42.6125C17.0935 43.0046 17.4122 43.3231 17.8042 43.5229C18.2498 43.75 18.8332 43.75 20 43.75H36.25C37.4169 43.75 38.0002 43.75 38.4458 43.5229C38.8379 43.3231 39.1565 43.0046 39.3563 42.6125C39.5833 42.1669 39.5833 41.5835 39.5833 40.4167V27.361" stroke="white" stroke-width="5" stroke-linecap="round" stroke-linejoin="round"/>
</svg>
