<svg width="50" height="50" viewBox="0 0 50 50" fill="none" xmlns="http://www.w3.org/2000/svg">
<path d="M25 43C35.2172 43 43.5 34.7172 43.5 24.5C43.5 14.2827 35.2172 6 25 6C14.7827 6 6.5 14.2827 6.5 24.5C6.5 34.7172 14.7827 43 25 43Z" stroke="white" stroke-width="4" stroke-linecap="round" stroke-linejoin="round"/>
<path d="M26.8618 16.3001C26.8512 16.7846 26.65 17.2454 26.3018 17.5825C25.9534 17.9195 25.4862 18.1054 25.0016 18.1C24.6484 18.0883 24.3066 17.9728 24.0186 17.768C23.7304 17.5632 23.5092 17.2781 23.3822 16.9483C23.255 16.6185 23.2278 16.2586 23.304 15.9135C23.38 15.5684 23.556 15.2534 23.81 15.0076C24.064 14.7619 24.3846 14.5963 24.732 14.5316C25.0794 14.4668 25.4384 14.5058 25.7638 14.6436C26.0892 14.7814 26.3668 15.012 26.562 15.3066C26.7574 15.6011 26.8616 15.9467 26.8618 16.3001ZM23.5818 33.0602V22.3002C23.5764 22.1112 23.6092 21.923 23.6784 21.7472C23.7476 21.5714 23.8516 21.4114 23.9844 21.277C24.117 21.1424 24.2756 21.036 24.4504 20.9644C24.6252 20.8928 24.8128 20.8572 25.0016 20.86C25.188 20.8598 25.3726 20.8974 25.544 20.9706C25.7154 21.0436 25.8704 21.1506 25.9994 21.2852C26.1284 21.4198 26.2286 21.579 26.2944 21.7534C26.3602 21.9278 26.3898 22.1138 26.3816 22.3002V33.0602C26.3816 33.244 26.3454 33.426 26.2752 33.5958C26.2048 33.7656 26.1016 33.92 25.9716 34.05C25.8416 34.18 25.6874 34.283 25.5176 34.3534C25.3476 34.4238 25.1656 34.46 24.9818 34.46C24.798 34.46 24.6158 34.4238 24.446 34.3534C24.2762 34.283 24.1218 34.18 23.9918 34.05C23.8618 33.92 23.7586 33.7656 23.6884 33.5958C23.618 33.426 23.5818 33.244 23.5818 33.0602Z" fill="white"/>
</svg>
