<svg width="50" height="50" viewBox="0 0 50 50" fill="none" xmlns="http://www.w3.org/2000/svg">
<path d="M41.8164 19.7852V10.7812H27.5977L10.1758 17.6953V24.5312L0.996094 28.9648V39.8242H36.6406L49.0234 29.4336V19.8242H41.8164V19.7852ZM25.9961 19.3945V27.0117H24.3555C24.3555 26.7969 24.3359 26.5625 24.3164 26.3477C24.1211 23.7109 23.0859 21.3672 21.3867 19.3945H25.9961ZM11.7773 19.3945H19.1797C21.2891 21.2305 22.4805 23.6719 22.6953 26.4844C22.7148 26.6602 22.7148 26.8359 22.7148 27.0117H19.3945C19.3945 26.9141 19.3945 26.8359 19.3945 26.7383C19.2383 24.8047 18.3594 23.0273 16.875 21.7773C15.4297 20.5469 13.6719 19.9219 11.8164 20.0195V19.4141H11.7773V19.3945ZM11.7773 21.582C13.2813 21.4844 14.668 21.9922 15.8008 22.9688C16.9531 23.9453 17.6563 25.332 17.7539 26.8555C17.7539 26.8945 17.7539 26.9531 17.7539 26.9922H15.9375C15.8594 25.9766 15.3516 25.0586 14.5898 24.3945C13.8086 23.7305 12.832 23.418 11.8164 23.4961C11.7773 23.4961 11.7969 23.4961 11.7773 23.4961V21.582ZM11.7773 25.0977C11.8555 25.0781 11.875 25.0781 11.9336 25.0781C12.5391 25.0391 13.0859 25.2148 13.5547 25.6055C13.9844 25.957 14.2383 26.4453 14.3164 27.0117H11.7773V25.0977ZM2.57813 38.2031V36.3867C2.69531 36.3672 2.8125 36.3281 2.92969 36.3281C3.51562 36.2891 4.08203 36.4648 4.55078 36.8555C4.98047 37.207 5.25391 37.6563 5.3125 38.2227H2.57813V38.2031ZM6.97266 38.2031C6.89453 37.1875 6.36719 36.3086 5.58594 35.6445C4.80469 34.9805 3.82812 34.668 2.8125 34.7461C2.73437 34.7461 2.65625 34.7656 2.57813 34.7852V32.9297C2.59766 32.9297 2.63672 32.9102 2.67578 32.9102C5.80078 32.6758 8.53516 35.0195 8.78906 38.1445C8.78906 38.1836 8.78906 38.2031 8.78906 38.2422C8.78906 38.2031 6.97266 38.2031 6.97266 38.2031ZM10.3906 38.2031C10.3906 38.1055 10.3906 38.0664 10.3711 37.9883C10.0586 34.0039 6.5625 30.9766 2.57813 31.2695V30.6055H10.0977C12.207 32.4414 13.4766 34.9219 13.7109 37.7344C13.7305 37.9102 13.7305 38.0469 13.7305 38.2227H10.3906V38.2031ZM15.3125 37.5781C15.1172 34.9414 14.082 32.5391 12.3828 30.5859H16.7969V38.2031H15.3516C15.332 37.9883 15.332 37.8125 15.3125 37.5781ZM20.8008 38.2031V36.3672C20.8984 36.3477 20.9375 36.3281 21.0547 36.3281C21.6406 36.2891 22.207 36.4648 22.6758 36.8555C23.1055 37.207 23.3398 37.6563 23.418 38.2227L20.8008 38.2031ZM25 38.2031C24.9219 37.1875 24.4727 36.3086 23.6914 35.6445C22.9102 34.9805 21.9336 34.668 20.918 34.7461C20.8594 34.7461 20.8594 34.7461 20.7813 34.7461V32.8125C23.9063 32.5781 26.6211 35 26.875 38.125C26.875 38.1641 26.875 38.1836 26.875 38.2227C26.8945 38.2031 25 38.2031 25 38.2031ZM28.4961 38.2031C28.4961 38.1055 28.4961 38.0664 28.4766 37.9883C28.1836 34.0039 24.7461 30.9375 20.7813 31.2109V30.6055H28.1836C30.293 32.4414 31.582 34.9219 31.8164 37.7344C31.8359 37.9102 31.7969 38.0469 31.7969 38.2227H28.4961V38.2031ZM35 38.2031H33.3984C33.3984 37.9883 33.418 37.793 33.3984 37.5781C33.2031 34.9414 32.0898 32.5391 30.3906 30.5859H35V38.2031Z" fill="black"/>
</svg>
