<svg width="100" height="100" viewBox="0 0 100 100" fill="none" xmlns="http://www.w3.org/2000/svg">
<g clip-path="url(#clip0_3_5)">
<path d="M0.200001 17C0.200001 16.7222 0.200001 16.4444 0.29361 16.0886C2.00643 16.0106 3.62563 16.0106 5.34974 16.0106C5.34974 14.438 5.31949 13.0111 5.36231 11.5865C5.38419 10.8583 5.16076 10.5774 4.39837 10.6036C3.0006 10.6515 1.59963 10.6063 0.200001 10.6C0.200001 10.3222 0.200001 10.0444 0.29327 9.69364C3.02789 9.62061 5.66924 9.62061 8.32411 9.62061C8.32411 7.80225 8.32411 6.13036 8.32411 4.4C5.56611 4.4 2.88305 4.4 0.200001 4.4C0.200001 4.12222 0.200001 3.84444 0.292011 3.46336C1.67791 3.35453 2.97423 3.2988 4.26484 3.36119C5.12044 3.40256 5.36388 3.07998 5.31542 2.27515C5.27403 1.58762 5.36666 0.892027 5.4 0.200001C5.61333 0.200001 5.82667 0.200001 6.14314 0.290911C6.25294 1.01137 6.30477 1.64452 6.25495 2.26957C6.19117 3.06987 6.44742 3.37687 7.3013 3.3632C10.2173 3.31652 13.1346 3.34757 16.0513 3.34176C16.3372 3.34119 16.623 3.29103 17 3.25523C17 2.18126 17 1.19063 17 0.200001C17.2778 0.200001 17.5556 0.200001 17.9156 0.293435C17.998 1.33674 17.998 2.2866 17.998 3.25975C21.6082 3.25975 25.0745 3.25975 28.6 3.25975C28.6 2.18456 28.6 1.19228 28.6 0.200001C28.8778 0.200001 29.1556 0.200001 29.5266 0.292986C29.6226 1.11507 29.648 1.84504 29.6205 2.57299C29.6002 3.10832 29.7629 3.356 30.345 3.35261C33.4272 3.33465 36.5095 3.33676 39.5917 3.35036C40.1501 3.35283 40.3554 3.12871 40.3477 2.58101C40.3366 1.78774 40.3799 0.993707 40.4 0.200001C60.3197 0.200001 80.2394 0.200001 100.2 0.200001C100.2 22.8708 100.2 45.5417 100.138 68.2705C99.9738 68.0837 99.8586 67.8435 99.7705 67.5936C96.2737 57.6803 92.7691 47.7697 89.3032 37.8456C89.0091 37.0035 88.6441 36.5881 87.6897 36.8135C87.4307 36.2011 87.2589 35.6231 87.0008 35.0865C86.8985 34.874 86.6062 34.6149 86.3977 34.6124C83.7025 34.5807 81.0069 34.5914 78.2742 34.5914C74.3839 45.6598 70.5084 56.6862 66.5914 67.8307C67.5945 67.8307 68.4881 67.8307 69.3716 67.902C69.1532 68.591 68.9449 69.2088 68.6778 70.0004C71.0235 70.0004 73.1784 69.9704 75.3316 70.0174C76.0431 70.0329 76.3046 69.7691 76.4879 69.1132C77.0343 67.1588 77.694 65.2361 78.2367 63.2807C78.4686 62.445 78.8434 62.1208 79.7528 62.138C82.9154 62.1977 86.0798 62.1609 89.2893 62.2194C89.895 64.1126 90.455 65.9473 91.028 67.8251C91.5237 67.8251 91.9542 67.8251 92.4071 67.8963C92.5219 68.2515 92.6651 68.5297 92.6975 68.8202C92.8099 69.8284 93.3784 70.0548 94.3247 70.0205C96.2808 69.9496 98.2413 69.9997 100.2 70C100.2 74.7375 100.2 79.475 100.107 84.2959C97.4338 84.3792 94.854 84.3792 92.2727 84.3792C92.2727 86.2084 92.2727 87.8592 92.2727 89.6C94.9568 89.6 97.5784 89.6 100.2 89.6C100.2 92.0042 100.2 94.4084 100.108 96.9261C97.4375 97.0397 94.8591 97.0397 92.2 97.0397C92.2 98.2132 92.2 99.2066 92.2 100.2C91.9222 100.2 91.6444 100.2 91.2935 100.107C91.2203 99.0364 91.2203 98.0588 91.2203 97.0821C87.5914 97.0821 84.1518 97.0821 80.6 97.0821C80.6 98.1615 80.6 99.1808 80.6 100.2C80.2571 100.2 79.9143 100.2 79.4865 100.107C79.4017 99.0629 79.4017 98.1127 79.4017 97.1409C75.7888 97.1409 72.3209 97.1409 68.8 97.1409C68.8 98.2163 68.8 99.2082 68.8 100.2C68.5222 100.2 68.2444 100.2 67.8771 100.107C67.7854 99.2488 67.7655 98.4836 67.7877 97.7196C67.8025 97.2095 67.6072 97.0114 67.0889 97.0137C63.9637 97.0277 60.8383 97.0271 57.7131 97.0142C57.2081 97.0121 56.9888 97.182 57.0039 97.7068C57.0277 98.5371 57.0037 99.3689 57 100.2C38.079 100.2 19.158 100.2 0.200001 100.2C0.200001 74.3292 0.200001 48.4583 0.293633 22.4985C3.03271 22.4095 5.67815 22.4095 8.32926 22.4095C8.32926 20.5423 8.32926 18.8316 8.32926 17C5.57285 17 2.88643 17 0.200001 17ZM61.5953 37.6376C61.7114 37.3025 61.8276 36.9674 61.9597 36.5865C59.2788 35.2662 56.5158 34.4835 53.5978 34.2958C46.84 33.8612 40.453 36.6311 37.8715 44.2418C36.7506 47.5466 36.6166 50.9566 36.9543 54.4105C37.3963 58.931 38.9831 62.8636 42.6118 65.9377C43.6157 66.7969 44.5055 67.8688 45.643 68.4793C51.0878 71.4015 56.6892 70.815 62.2936 68.9352C62.4961 68.8673 62.7641 68.5854 62.7679 68.3986C62.8039 66.6191 62.7894 64.8386 62.7894 62.9845C62.0091 63.1493 61.4 63.278 60.7702 63.221C60.7702 62.4143 60.7702 61.6076 60.7702 60.6945C60.2225 60.8665 59.8489 60.9861 59.474 61.1012C56.9288 61.8825 54.3574 62.5404 51.6647 62.3837C50.0936 62.2923 48.5685 61.994 47.3769 60.6799C45.6335 56.2195 45.5194 51.7004 47.1816 47.226C48.4341 43.8546 50.952 42.2087 54.5287 42.384C56.0904 42.4606 57.6416 42.9746 59.1715 43.3864C60.0508 43.6231 60.878 44.053 61.8102 44.4288C62.5748 42.4881 63.2983 40.6516 64.0544 38.7323C63.1404 38.3859 62.3674 38.093 61.5953 37.6376ZM17.9768 57.4041C19.9591 60.5819 21.9622 63.747 23.9054 66.9486C24.2726 67.5536 24.6707 67.8877 25.3553 68.0125C25.8648 69.4192 26.6682 70.317 28.3644 70.0222C29.1397 69.8874 29.9578 69.9993 30.7565 69.9993C31.8642 69.9993 32.9719 69.9993 34.2549 69.9993C30.9638 65.1067 27.8031 60.408 24.6112 55.6629C24.9987 55.4304 25.2168 55.286 25.4466 55.1636C30.402 52.5241 31.7901 47.6018 29.9559 42.6524C29.5205 41.4778 28.8886 40.3718 27.6142 39.6363C25.9671 36.9819 23.4637 35.6775 20.4821 35.1748C15.6814 34.3653 10.8396 34.8525 6.0159 34.7704C5.96613 34.7695 5.91518 34.8382 5.85863 34.8788C5.85863 45.8283 5.85863 56.7794 5.85863 67.8208C6.53431 67.8208 7.16058 67.8208 7.81852 67.9997C7.82358 68.266 7.86648 68.5381 7.82693 68.7976C7.6803 69.7598 8.05996 70.0706 9.0299 70.0203C10.5578 69.9411 12.0957 69.9432 13.6239 70.0198C14.5759 70.0675 14.8774 69.7919 14.8611 68.8116C14.8032 65.3155 14.8542 61.8178 14.826 58.3209C14.8202 57.5982 15.0189 57.2811 15.7856 57.3339C16.4803 57.3818 17.1825 57.3192 17.9768 57.4041ZM21.0259 20.4903C21.0259 21.1079 21.0259 21.7254 21.0259 22.3266C24.7081 22.3266 28.2179 22.3266 31.7102 22.3266C31.7102 20.5277 31.7102 18.8166 31.7102 17.02C28.4331 17.02 25.2404 17.0497 22.049 17.0005C21.1799 16.9871 20.9508 17.2986 21.0137 18.0963C21.0712 18.8245 21.0259 19.5609 21.0259 20.4903ZM12.9 10.6563C10.9707 10.6565 9.04087 10.6335 7.11286 10.6825C6.82901 10.6897 6.32055 11.0283 6.31174 11.2308C6.24422 12.7827 6.27466 14.3388 6.27466 15.9233C9.89773 15.9233 13.3959 15.9233 16.975 15.9233C16.975 14.3147 17.0012 12.7887 16.9447 11.2656C16.937 11.0554 16.5301 10.7001 16.2915 10.6857C15.2309 10.6215 14.1643 10.657 12.9 10.6563ZM30.9254 16.0081C34.0138 16.0081 37.1022 16.0081 40.3271 16.0081C40.3271 14.3317 40.3455 12.7451 40.3007 11.1602C40.2958 10.9887 39.9262 10.685 39.7235 10.683C36.5632 10.6517 33.4025 10.6512 30.2423 10.6798C30.039 10.6817 29.6678 10.9736 29.6631 11.1387C29.6189 12.7237 29.6366 14.3104 29.6366 15.9576C30.0848 15.9782 30.4093 15.9932 30.9254 16.0081ZM88.2002 91.3532C88.2429 90.8814 88.113 90.611 87.5541 90.6139C84.4263 90.6304 81.2983 90.6131 78.1706 90.638C77.936 90.6399 77.5041 90.8757 77.5002 91.0124C77.4533 92.6564 77.4699 94.3022 77.4699 95.9211C81.1384 95.9211 84.643 95.9211 88.2007 95.9211C88.2007 94.4002 88.2007 92.9713 88.2002 91.3532ZM58.5 90.6205C57.0183 90.6205 55.5365 90.6205 54.0662 90.6205C54.0662 92.5044 54.0662 94.2157 54.0662 95.9288C57.6126 95.9288 61.0817 95.9288 64.5461 95.9288C64.5461 94.1346 64.5461 92.4254 64.5461 90.6205C62.5443 90.6205 60.6221 90.6205 58.5 90.6205ZM89.1855 82.2634C89.203 82.5846 89.2205 82.9058 89.2399 83.2611C92.791 83.2611 96.2594 83.2611 99.7197 83.2611C99.7197 81.4714 99.7197 79.7636 99.7197 78.0537C96.1906 78.0537 92.7472 78.0537 89.1855 78.0537C89.1855 79.4323 89.1855 80.7522 89.1855 82.2634ZM87.452 77.9935C84.174 77.9935 80.896 77.9935 77.5459 77.9935C77.5459 79.593 77.5779 81.022 77.5325 82.4485C77.5098 83.1606 77.7756 83.3598 78.4571 83.3535C81.4509 83.3258 84.4452 83.3434 87.4392 83.3368C87.6622 83.3363 87.8851 83.2745 88.1874 83.2293C88.1874 81.6331 88.205 80.0746 88.1634 78.5177C88.1586 78.3393 87.8232 78.1698 87.452 77.9935ZM76.0375 78.0432C72.5928 78.0432 69.1482 78.0432 65.6922 78.0432C65.6922 79.8429 65.6922 81.547 65.6922 83.338C69.0636 83.338 72.3516 83.3486 75.639 83.3129C75.8446 83.3107 76.2188 82.95 76.2223 82.751C76.2493 81.2243 76.2038 79.6964 76.0375 78.0432ZM54.5531 77.996C54.3704 78.1327 54.0321 78.2658 54.0288 78.4067C53.9914 80.0191 54.005 81.6327 54.005 83.2455C57.6182 83.2455 61.0816 83.2455 64.5513 83.2455C64.5513 81.4677 64.5513 79.7868 64.5513 77.9936C61.2409 77.9936 57.9925 77.9936 54.5531 77.996ZM67.3124 96.0071C70.2598 96.0071 73.2073 96.0071 76.1989 96.0071C76.1989 94.1745 76.1989 92.4919 76.1989 90.7337C72.6727 90.7337 69.2016 90.7337 65.6763 90.7337C65.6763 92.493 65.6763 94.1987 65.6763 96.0071C66.1998 96.0071 66.6585 96.0071 67.3124 96.0071ZM94.9 96.0069C96.5132 96.0069 98.1264 96.0069 99.7503 96.0069C99.7503 94.1587 99.7503 92.4766 99.7503 90.7293C96.2275 90.7293 92.7597 90.7293 89.2608 90.7293C89.2608 92.5066 89.2608 94.2121 89.2608 96.0069C91.1231 96.0069 92.9116 96.0069 94.9 96.0069ZM38.5 22.4069C40.1132 22.4069 41.7264 22.4069 43.3459 22.4069C43.3459 20.556 43.3459 18.8736 43.3459 17.1305C39.8212 17.1305 36.3523 17.1305 32.855 17.1305C32.855 18.909 32.855 20.6144 32.855 22.4069C34.7216 22.4069 36.5108 22.4069 38.5 22.4069ZM13.7 22.4069C15.7785 22.4069 17.857 22.4069 19.9557 22.4069C19.9557 20.5634 19.9557 18.8812 19.9557 17.1289C16.4353 17.1289 12.9677 17.1289 9.4617 17.1289C9.4617 18.9025 9.4617 20.6079 9.4617 22.4069C10.8546 22.4069 12.1773 22.4069 13.7 22.4069ZM27.0863 16.0128C27.5729 16.0128 28.0594 16.0128 28.6509 16.0128C28.6509 14.4439 28.6058 13.018 28.6682 11.5968C28.7044 10.7731 28.3861 10.5957 27.6288 10.6055C24.7341 10.6428 21.8386 10.6186 18.9434 10.6236C18.6558 10.6241 18.3683 10.6669 18.0644 10.6913C18.0644 12.4846 18.0644 14.1968 18.0644 16.0128C21.0495 16.0128 23.9698 16.0128 27.0863 16.0128ZM64.6991 89.6297C65.6813 89.6297 66.6635 89.6297 67.746 89.6297C67.746 88.0411 67.7174 86.6158 67.7584 85.1926C67.7781 84.5105 67.4971 84.355 66.8736 84.3599C63.8457 84.3837 60.8174 84.3689 57.7892 84.3753C57.5697 84.3758 57.3503 84.4359 57.0397 84.4817C57.0397 85.9255 57.0816 87.3185 57.0234 88.7073C56.9907 89.4892 57.2968 89.6565 58.0108 89.6437C60.1731 89.6047 62.3365 89.6297 64.6991 89.6297ZM31.7733 6.3092C31.7733 5.69081 31.7733 5.07242 31.7733 4.37425C28.2859 4.37425 24.9619 4.36744 21.6381 4.3923C21.4519 4.39369 21.1104 4.65236 21.1068 4.79777C21.0682 6.38035 21.0827 7.96423 21.0827 9.55304C24.715 9.55304 28.1903 9.55304 31.7733 9.55304C31.7733 8.48761 31.7733 7.49671 31.7733 6.3092ZM87.4999 84.3717C85.2228 84.3717 82.9457 84.3717 80.6841 84.3717C80.6841 86.2193 80.6841 87.8933 80.6841 89.56C84.2153 89.56 87.6582 89.56 91.1402 89.56C91.1402 87.8186 91.1402 86.1459 91.1402 84.3717C89.9464 84.3717 88.8231 84.3717 87.4999 84.3717ZM68.7641 88.4775C68.7831 88.8303 68.8021 89.1831 68.8213 89.5398C72.3937 89.5398 75.8623 89.5398 79.3428 89.5398C79.3428 87.8005 79.3428 86.1503 79.3428 84.4439C75.8164 84.4439 72.3471 84.4439 68.764 84.4439C68.764 85.7705 68.764 87.0267 68.7641 88.4775ZM43.4001 8.66684C43.4001 7.25341 43.4001 5.83998 43.4001 4.4435C39.7748 4.4435 36.3306 4.4435 32.8564 4.4435C32.8564 6.1887 32.8564 7.86142 32.8564 9.62167C36.2538 9.62167 39.5739 9.63305 42.8933 9.58917C43.0653 9.58689 43.231 9.11271 43.4001 8.66684ZM9.75709 9.61219C13.1372 9.61219 16.5172 9.61219 19.9353 9.61219C19.9353 7.81881 19.9353 6.14537 19.9353 4.45961C16.3965 4.45961 12.9302 4.45961 9.30814 4.45961C9.39967 6.22413 9.48636 7.89548 9.75709 9.61219Z" fill="#FFDC54"/>
<path d="M100.2 69.9112C98.2413 69.9997 96.2808 69.9496 94.3247 70.0205C93.3784 70.0548 92.8099 69.8284 92.6975 68.8202C92.6651 68.5296 92.5219 68.2515 92.5012 67.885C94.5144 67.8024 96.4558 67.8024 98.5016 67.8024C98.3697 67.3474 98.3017 67.0613 98.2045 66.7855C95.7088 59.7007 93.2027 52.6195 90.7153 45.5318C89.7039 42.6498 88.7321 39.754 87.7422 36.8645C88.6441 36.5881 89.0091 37.0035 89.3032 37.8456C92.7691 47.7697 96.2737 57.6803 99.7705 67.5936C99.8586 67.8434 99.9738 68.0837 100.138 68.3642C100.2 68.8741 100.2 69.3482 100.2 69.9112Z" fill="#988432"/>
<path d="M0.200001 17.0937C2.88643 17 5.57285 17 8.32926 17C8.32926 18.8316 8.32926 20.5423 8.32926 22.4095C5.67815 22.4095 3.03271 22.4095 0.293633 22.4048C0.200001 20.6625 0.200001 18.925 0.200001 17.0937Z" fill="#FF3231"/>
<path d="M0.200001 4.49373C2.88305 4.4 5.56611 4.4 8.32411 4.4C8.32411 6.13036 8.32411 7.80225 8.32411 9.62061C5.66924 9.62061 3.02789 9.62061 0.29327 9.61031C0.200001 7.92916 0.200001 6.25831 0.200001 4.49373Z" fill="#FF3131"/>
<path d="M100.2 89.5063C97.5784 89.6 94.9568 89.6 92.2727 89.6C92.2727 87.8592 92.2727 86.2084 92.2727 84.3792C94.854 84.3792 97.4338 84.3792 100.107 84.3896C100.2 86.0708 100.2 87.7417 100.2 89.5063Z" fill="#FF3131"/>
<path d="M57.0937 100.2C57.0037 99.3689 57.0277 98.5371 57.0039 97.7068C56.9888 97.182 57.2081 97.0121 57.7131 97.0142C60.8383 97.0271 63.9637 97.0277 67.0889 97.0137C67.6072 97.0114 67.8025 97.2095 67.7877 97.7196C67.7655 98.4836 67.7854 99.2488 67.7937 100.107C64.2625 100.2 60.725 100.2 57.0937 100.2Z" fill="#FF3432"/>
<path d="M16.9063 0.200001C17 1.19063 17 2.18126 17 3.25523C16.623 3.29103 16.3372 3.34119 16.0513 3.34176C13.1346 3.34757 10.2173 3.31652 7.3013 3.3632C6.44742 3.37687 6.19117 3.06987 6.25495 2.26957C6.30476 1.64452 6.25294 1.01137 6.22314 0.290911C9.73751 0.200001 13.275 0.200001 16.9063 0.200001Z" fill="#FF3832"/>
<path d="M40.3063 0.200001C40.3799 0.993707 40.3366 1.78774 40.3477 2.58101C40.3554 3.12871 40.1501 3.35283 39.5917 3.35036C36.5095 3.33676 33.4272 3.33465 30.345 3.35261C29.7629 3.356 29.6002 3.10832 29.6205 2.57299C29.648 1.84504 29.6226 1.11507 29.6099 0.292986C33.1375 0.200001 36.675 0.200001 40.3063 0.200001Z" fill="#FF3832"/>
<path d="M68.8937 100.2C68.8 99.2082 68.8 98.2163 68.8 97.1409C72.3209 97.1409 75.7888 97.1409 79.4017 97.1409C79.4017 98.1128 79.4017 99.0629 79.4008 100.107C75.9292 100.2 72.4583 100.2 68.8937 100.2Z" fill="#FF3632"/>
<path d="M80.6937 100.2C80.6 99.1808 80.6 98.1615 80.6 97.0821C84.1518 97.0821 87.5914 97.0821 91.2203 97.0821C91.2203 98.0588 91.2203 99.0364 91.2101 100.107C87.7292 100.2 84.2583 100.2 80.6937 100.2Z" fill="#FF3331"/>
<path d="M28.5063 0.200001C28.6 1.19228 28.6 2.18456 28.6 3.25975C25.0745 3.25975 21.6082 3.25975 17.998 3.25975C17.998 2.2866 17.998 1.33674 17.999 0.293435C21.4708 0.200001 24.9417 0.200001 28.5063 0.200001Z" fill="#FF3632"/>
<path d="M0.200001 10.6937C1.59963 10.6063 3.0006 10.6515 4.39837 10.6036C5.16076 10.5774 5.38419 10.8583 5.36231 11.5865C5.31949 13.0111 5.34974 14.438 5.34974 16.0106C3.62563 16.0106 2.00643 16.0106 0.29361 16.0053C0.200001 14.2625 0.200001 12.525 0.200001 10.6937Z" fill="#FF3532"/>
<path d="M92.2937 100.2C92.2 99.2066 92.2 98.2132 92.2 97.0397C94.8591 97.0397 97.4375 97.0397 100.108 97.0199C100.2 98.0583 100.2 99.1165 100.2 100.2C97.5959 100.2 94.9917 100.2 92.2937 100.2Z" fill="#FF3632"/>
<path d="M5.30627 0.200001C5.36666 0.892027 5.27403 1.58762 5.31542 2.27515C5.36388 3.07998 5.12044 3.40255 4.26484 3.36119C2.97423 3.2988 1.67791 3.35453 0.292011 3.38003C0.200001 2.34457 0.200001 1.28915 0.200001 0.200001C1.87073 0.200001 3.54163 0.200001 5.30627 0.200001Z" fill="#FF3632"/>
<path d="M25.3633 67.8705C24.6707 67.8877 24.2726 67.5536 23.9054 66.9486C21.9622 63.747 19.9591 60.5819 17.91 57.289C17.6162 56.8059 17.4128 56.4202 17.1552 56.0751C16.9068 55.7426 16.6247 55.214 16.3186 55.1853C15.1832 55.0787 14.0318 55.1428 12.7778 55.1428C12.7778 59.4528 12.7778 63.5934 12.7778 67.8208C11.0387 67.8208 9.4128 67.8208 7.78686 67.8208C7.16058 67.8208 6.53431 67.8208 5.85863 67.8208C5.85863 56.7794 5.85863 45.8283 5.85863 34.8788C5.91518 34.8382 5.96613 34.7695 6.0159 34.7704C10.8396 34.8525 15.6814 34.3653 20.4821 35.1748C23.4637 35.6775 25.9671 36.9819 27.6491 39.7668C28.7317 42.2629 28.9751 44.719 28.2947 47.2056C27.4737 50.2058 25.3241 52.0717 22.5142 53.4088C25.7484 58.2144 28.927 62.9374 32.247 67.8705C29.7976 67.8705 27.5805 67.8705 25.3633 67.8705ZM15.0013 49.3923C16.2404 49.2367 17.5258 49.2393 18.7089 48.8927C21.203 48.1619 22.267 45.6013 21.2371 43.0259C20.9233 42.057 20.201 41.4944 19.2994 41.1451C17.2309 40.3435 15.0788 40.4119 12.8807 40.4886C12.8807 43.4913 12.8807 46.4032 12.8807 49.3619C13.5717 49.3619 14.1974 49.3619 15.0013 49.3923Z" fill="#010100"/>
<path d="M87.6897 36.8135C88.7321 39.754 89.7039 42.6499 90.7153 45.5318C93.2027 52.6195 95.7088 59.7007 98.2045 66.7855C98.3017 67.0613 98.3696 67.3474 98.5016 67.8024C96.4558 67.8024 94.5144 67.8024 92.4788 67.8137C91.9542 67.8251 91.5237 67.8251 91.028 67.8251C90.4549 65.9473 89.895 64.1126 89.2869 62.1421C89.1554 61.7193 89.0332 61.4373 88.9962 61.1446C88.8724 60.1654 88.3468 59.9025 87.3757 59.9213C84.0537 59.9856 80.7296 59.9609 77.4066 59.9332C76.769 59.9279 76.4669 60.1244 76.288 60.7534C75.6888 62.8603 75.0091 64.9443 74.402 67.0491C74.2366 67.6225 73.9755 67.8344 73.3676 67.8167C72.0402 67.7779 70.7104 67.821 69.3816 67.8307C68.4881 67.8307 67.5945 67.8307 66.5914 67.8307C70.5084 56.6862 74.3839 45.6598 78.2742 34.5914C81.0069 34.5914 83.7025 34.5807 86.3977 34.6124C86.6062 34.6149 86.8985 34.874 87.0008 35.0865C87.2589 35.6231 87.4307 36.2011 87.6897 36.8135ZM81.3787 54.0291C83.1883 54.0291 84.998 54.0291 86.9523 54.0291C85.9301 50.7927 84.9549 47.705 83.9866 44.4641C83.5491 43.0556 83.1115 41.647 82.5855 39.9534C81.1249 44.8051 79.7541 49.3585 78.3533 54.0116C79.4016 54.0116 80.2962 54.0116 81.3787 54.0291Z" fill="#020101"/>
<path d="M47.3713 60.8309C48.5685 61.994 50.0936 62.2923 51.6647 62.3837C54.3574 62.5404 56.9288 61.8825 59.474 61.1012C59.8489 60.9861 60.2225 60.8665 60.7702 60.6945C60.7702 61.6076 60.7702 62.4143 60.7649 63.4056C60.7628 64.1222 60.7057 64.6629 60.7816 65.1843C60.9394 66.2666 60.5052 66.7568 59.4496 67.0581C53.667 68.708 48.0072 69.0305 42.5989 65.8015C38.9831 62.8636 37.3963 58.931 36.9543 54.4105C36.6166 50.9566 36.7506 47.5466 37.8715 44.2418C40.453 36.6311 46.84 33.8612 53.5978 34.2958C56.5158 34.4835 59.2788 35.2662 61.9597 36.5865C61.8276 36.9674 61.7114 37.3025 61.5407 37.7644C60.9043 39.3292 60.3224 40.7672 59.7511 42.1791C58.1851 41.5994 56.7471 40.9737 55.2547 40.5318C50.3644 39.0835 46.3332 41.0754 44.8398 45.7343C43.6285 49.5132 43.6875 53.3515 44.8287 57.143C45.2711 58.6129 45.9753 59.9806 47.3713 60.8309Z" fill="#020201"/>
<path d="M47.3741 60.7554C45.9753 59.9806 45.2711 58.6129 44.8287 57.143C43.6875 53.3515 43.6285 49.5132 44.8398 45.7343C46.3332 41.0754 50.3644 39.0835 55.2547 40.5318C56.7471 40.9737 58.1851 41.5994 59.7511 42.1791C60.3224 40.7672 60.9043 39.3292 61.5403 37.8456C62.3674 38.093 63.1404 38.3859 64.0544 38.7323C63.2983 40.6516 62.5748 42.4881 61.8102 44.4288C60.878 44.053 60.0508 43.6231 59.1715 43.3864C57.6416 42.9746 56.0904 42.4606 54.5287 42.384C50.952 42.2087 48.4341 43.8546 47.1816 47.226C45.5194 51.7004 45.6335 56.2195 47.3741 60.7554Z" fill="#988432"/>
<path d="M25.3593 67.9415C27.5805 67.8705 29.7976 67.8705 32.247 67.8705C28.927 62.9374 25.7484 58.2144 22.5142 53.4088C25.3241 52.0717 27.4737 50.2058 28.2947 47.2056C28.9751 44.719 28.7317 42.2629 27.6875 39.8242C28.8886 40.3718 29.5205 41.4778 29.9559 42.6524C31.7901 47.6018 30.402 52.5241 25.4465 55.1636C25.2168 55.286 24.9987 55.4304 24.6112 55.6629C27.8031 60.408 30.9638 65.1067 34.2549 69.9993C32.9719 69.9993 31.8642 69.9993 30.7565 69.9993C29.9578 69.9993 29.1397 69.8874 28.3644 70.0222C26.6682 70.317 25.8648 69.4192 25.3593 67.9415Z" fill="#998532"/>
<path d="M69.3716 67.902C70.7104 67.821 72.0402 67.7779 73.3676 67.8166C73.9755 67.8344 74.2366 67.6224 74.402 67.0491C75.0091 64.9443 75.6888 62.8603 76.288 60.7534C76.4669 60.1244 76.769 59.9279 77.4066 59.9332C80.7296 59.9609 84.0537 59.9856 87.3757 59.9213C88.3468 59.9025 88.8724 60.1654 88.9962 61.1445C89.0332 61.4373 89.1554 61.7193 89.2411 62.0835C86.0798 62.1609 82.9154 62.1976 79.7528 62.138C78.8434 62.1208 78.4686 62.445 78.2367 63.2807C77.694 65.2361 77.0343 67.1588 76.4879 69.1132C76.3046 69.7691 76.0431 70.0329 75.3316 70.0174C73.1784 69.9704 71.0235 70.0004 68.6778 70.0004C68.9449 69.2087 69.1532 68.591 69.3716 67.902Z" fill="#9A8632"/>
<path d="M21.0259 20.392C21.0259 19.5609 21.0712 18.8245 21.0137 18.0963C20.9508 17.2986 21.1799 16.9871 22.049 17.0005C25.2404 17.0497 28.4331 17.02 31.7102 17.02C31.7102 18.8166 31.7102 20.5277 31.7102 22.3266C28.2179 22.3266 24.7081 22.3266 21.0259 22.3266C21.0259 21.7254 21.0259 21.1079 21.0259 20.392Z" fill="#FF3331"/>
<path d="M12.9999 10.6564C14.1643 10.657 15.2309 10.6215 16.2915 10.6857C16.5301 10.7001 16.937 11.0554 16.9448 11.2656C17.0012 12.7887 16.975 14.3147 16.975 15.9233C13.3959 15.9233 9.89773 15.9233 6.27466 15.9233C6.27466 14.3388 6.24422 12.7827 6.31174 11.2308C6.32055 11.0283 6.82901 10.6897 7.11286 10.6825C9.04087 10.6335 10.9707 10.6565 12.9999 10.6564Z" fill="#FF3632"/>
<path d="M30.8296 16.0081C30.4093 15.9932 30.0848 15.9782 29.6366 15.9576C29.6366 14.3104 29.6189 12.7237 29.6631 11.1387C29.6678 10.9736 30.039 10.6817 30.2423 10.6798C33.4025 10.6512 36.5632 10.6517 39.7235 10.683C39.9262 10.685 40.2958 10.9887 40.3007 11.1602C40.3455 12.7451 40.3271 14.3317 40.3271 16.0081C37.1022 16.0081 34.0138 16.0081 30.8296 16.0081Z" fill="#FF3632"/>
<path d="M88.2004 91.4477C88.2007 92.9713 88.2007 94.4002 88.2007 95.9211C84.643 95.9211 81.1384 95.9211 77.4699 95.9211C77.4699 94.3022 77.4533 92.6564 77.5002 91.0124C77.5041 90.8757 77.936 90.6399 78.1706 90.638C81.2983 90.6131 84.4263 90.6303 87.5541 90.6139C88.113 90.611 88.2429 90.8814 88.2004 91.4477Z" fill="#FF3331"/>
<path d="M58.6 90.6205C60.6221 90.6205 62.5442 90.6205 64.5461 90.6205C64.5461 92.4254 64.5461 94.1346 64.5461 95.9288C61.0817 95.9288 57.6126 95.9288 54.0662 95.9288C54.0662 94.2157 54.0662 92.5044 54.0662 90.6205C55.5365 90.6205 57.0183 90.6205 58.6 90.6205Z" fill="#FF3231"/>
<path d="M89.1855 82.1678C89.1855 80.7522 89.1855 79.4323 89.1855 78.0537C92.7472 78.0537 96.1906 78.0537 99.7197 78.0537C99.7197 79.7636 99.7197 81.4714 99.7197 83.2611C96.2594 83.2611 92.791 83.2611 89.2399 83.2611C89.2205 82.9058 89.203 82.5846 89.1855 82.1678Z" fill="#FF3432"/>
<path d="M87.5465 77.9948C87.8232 78.1697 88.1586 78.3393 88.1634 78.5177C88.205 80.0746 88.1874 81.6331 88.1874 83.2293C87.8851 83.2745 87.6622 83.3363 87.4392 83.3368C84.4452 83.3434 81.4509 83.3258 78.4571 83.3535C77.7756 83.3598 77.5098 83.1606 77.5325 82.4485C77.5779 81.022 77.5459 79.593 77.5459 77.9935C80.896 77.9935 84.174 77.9935 87.5465 77.9948Z" fill="#FF3432"/>
<path d="M76.1092 78.106C76.2038 79.6964 76.2493 81.2243 76.2223 82.751C76.2188 82.95 75.8446 83.3107 75.639 83.3129C72.3516 83.3485 69.0636 83.338 65.6922 83.338C65.6922 81.547 65.6922 79.8429 65.6922 78.0432C69.1482 78.0432 72.5928 78.0432 76.1092 78.106Z" fill="#FF3432"/>
<path d="M54.6486 77.9948C57.9925 77.9936 61.2409 77.9936 64.5513 77.9936C64.5513 79.7868 64.5513 81.4677 64.5513 83.2455C61.0816 83.2455 57.6182 83.2455 54.005 83.2455C54.005 81.6327 53.9914 80.0191 54.0288 78.4067C54.0321 78.2658 54.3704 78.1327 54.6486 77.9948Z" fill="#FF3432"/>
<path d="M67.2148 96.0071C66.6585 96.0071 66.1998 96.0071 65.6763 96.0071C65.6763 94.1987 65.6763 92.493 65.6763 90.7337C69.2016 90.7337 72.6727 90.7337 76.1989 90.7337C76.1989 92.4919 76.1989 94.1745 76.1989 96.0071C73.2073 96.0071 70.2598 96.0071 67.2148 96.0071Z" fill="#FF3432"/>
<path d="M94.8 96.0069C92.9116 96.0069 91.1232 96.0069 89.2608 96.0069C89.2608 94.2121 89.2608 92.5066 89.2608 90.7293C92.7597 90.7293 96.2275 90.7293 99.7503 90.7293C99.7503 92.4766 99.7503 94.1587 99.7503 96.0069C98.1264 96.0069 96.5132 96.0069 94.8 96.0069Z" fill="#FF3432"/>
<path d="M38.4 22.4069C36.5108 22.4069 34.7216 22.4069 32.855 22.4069C32.855 20.6144 32.855 18.909 32.855 17.1305C36.3523 17.1305 39.8212 17.1305 43.3459 17.1305C43.3459 18.8736 43.3459 20.556 43.3459 22.4069C41.7264 22.4069 40.1132 22.4069 38.4 22.4069Z" fill="#FF3432"/>
<path d="M13.6 22.4069C12.1773 22.4069 10.8546 22.4069 9.4617 22.4069C9.4617 20.6079 9.4617 18.9025 9.4617 17.1289C12.9677 17.1289 16.4353 17.1289 19.9557 17.1289C19.9557 18.8812 19.9557 20.5634 19.9557 22.4069C17.857 22.4069 15.7785 22.4069 13.6 22.4069Z" fill="#FF3432"/>
<path d="M26.9882 16.0128C23.9698 16.0128 21.0495 16.0128 18.0644 16.0128C18.0644 14.1968 18.0644 12.4846 18.0644 10.6913C18.3683 10.6669 18.6558 10.6241 18.9434 10.6236C21.8386 10.6186 24.7341 10.6428 27.6288 10.6055C28.3861 10.5957 28.7044 10.7731 28.6682 11.5968C28.6058 13.018 28.6509 14.4439 28.6509 16.0128C28.0594 16.0128 27.5729 16.0128 26.9882 16.0128Z" fill="#FF3231"/>
<path d="M64.5993 89.6297C62.3365 89.6297 60.1731 89.6047 58.0108 89.6437C57.2968 89.6565 56.9907 89.4892 57.0234 88.7073C57.0816 87.3185 57.0397 85.9256 57.0397 84.4817C57.3503 84.4359 57.5697 84.3758 57.7892 84.3753C60.8174 84.3689 63.8457 84.3837 66.8736 84.3599C67.497 84.355 67.7781 84.5105 67.7584 85.1926C67.7174 86.6158 67.746 88.0411 67.746 89.6297C66.6635 89.6297 65.6813 89.6297 64.5993 89.6297Z" fill="#FF3332"/>
<path d="M31.7733 6.40751C31.7733 7.49671 31.7733 8.48761 31.7733 9.55304C28.1903 9.55304 24.715 9.55304 21.0827 9.55304C21.0827 7.96423 21.0682 6.38035 21.1068 4.79777C21.1104 4.65236 21.4519 4.39369 21.6381 4.39229C24.9619 4.36744 28.2859 4.37425 31.7733 4.37425C31.7733 5.07242 31.7733 5.69081 31.7733 6.40751Z" fill="#FF3331"/>
<path d="M87.5998 84.3717C88.8231 84.3717 89.9464 84.3717 91.1402 84.3717C91.1402 86.1459 91.1402 87.8186 91.1402 89.56C87.6582 89.56 84.2153 89.56 80.6841 89.56C80.6841 87.8933 80.6841 86.2193 80.6841 84.3717C82.9457 84.3717 85.2228 84.3717 87.5998 84.3717Z" fill="#FF3131"/>
<path d="M68.764 88.3802C68.764 87.0267 68.764 85.7705 68.764 84.4439C72.3471 84.4439 75.8164 84.4439 79.3428 84.4439C79.3428 86.1503 79.3428 87.8005 79.3428 89.5398C75.8623 89.5398 72.3937 89.5398 68.8213 89.5398C68.8021 89.1831 68.7831 88.8303 68.764 88.3802Z" fill="#FF3131"/>
<path d="M43.3999 8.76254C43.231 9.11271 43.0653 9.58689 42.8933 9.58917C39.5739 9.63305 36.2538 9.62167 32.8564 9.62167C32.8564 7.86143 32.8564 6.1887 32.8564 4.4435C36.3306 4.4435 39.7748 4.4435 43.4001 4.4435C43.4001 5.83998 43.4001 7.25341 43.3999 8.76254Z" fill="#FF3131"/>
<path d="M9.66507 9.58951C9.48636 7.89548 9.39967 6.22413 9.30814 4.45961C12.9302 4.45961 16.3965 4.45961 19.9353 4.45961C19.9353 6.14537 19.9353 7.81881 19.9353 9.61219C16.5172 9.61219 13.1372 9.61219 9.66507 9.58951Z" fill="#FF3131"/>
<path d="M42.6053 65.8696C48.0072 69.0305 53.667 68.708 59.4496 67.0581C60.5052 66.7568 60.9394 66.2666 60.7816 65.1843C60.7057 64.6629 60.7628 64.1222 60.7753 63.4984C61.4 63.278 62.0091 63.1493 62.7894 62.9845C62.7894 64.8386 62.8039 66.6191 62.7679 68.3986C62.7641 68.5854 62.4961 68.8673 62.2936 68.9352C56.6892 70.815 51.0878 71.4015 45.643 68.4793C44.5055 67.8688 43.6157 66.7969 42.6053 65.8696Z" fill="#998532"/>
<path d="M7.80269 67.9102C9.4128 67.8208 11.0387 67.8208 12.7778 67.8208C12.7778 63.5934 12.7778 59.4528 12.7778 55.1428C14.0318 55.1428 15.1832 55.0786 16.3186 55.1853C16.6247 55.214 16.9068 55.7426 17.1552 56.0751C17.4128 56.4202 17.6162 56.8059 17.8624 57.2396C17.1825 57.3192 16.4803 57.3818 15.7856 57.3339C15.0189 57.2811 14.8202 57.5982 14.826 58.3209C14.8542 61.8178 14.8032 65.3155 14.8611 68.8116C14.8774 69.7919 14.5759 70.0675 13.6239 70.0198C12.0957 69.9432 10.5578 69.9411 9.0299 70.0203C8.05995 70.0706 7.6803 69.7598 7.82693 68.7976C7.86648 68.5381 7.82358 68.266 7.80269 67.9102Z" fill="#998532"/>
<path d="M21.2331 43.1698C22.267 45.6013 21.203 48.1619 18.7089 48.8927C17.5258 49.2393 16.2404 49.2367 14.9165 49.2859C14.8324 47.2845 14.8498 45.3893 14.8248 43.4946C14.8163 42.8488 15.0588 42.5652 15.7019 42.6285C17.5456 42.81 19.3894 42.9895 21.2331 43.1698Z" fill="#FBDA53"/>
<path d="M21.2351 43.0979C19.3894 42.9895 17.5455 42.81 15.7019 42.6285C15.0588 42.5652 14.8163 42.8488 14.8248 43.4946C14.8498 45.3893 14.8324 47.2845 14.8274 49.2707C14.1974 49.3619 13.5717 49.3619 12.8807 49.3619C12.8807 46.4032 12.8807 43.4913 12.8807 40.4886C15.0788 40.4119 17.2309 40.3435 19.2994 41.1451C20.201 41.4944 20.9233 42.057 21.2351 43.0979Z" fill="#968331"/>
<path d="M81.1908 54.0116C80.2962 54.0116 79.4016 54.0116 78.3533 54.0116C79.7541 49.3585 81.1249 44.8051 82.5855 39.9534C83.1115 41.647 83.5491 43.0556 83.9332 44.5913C83.2647 46.7368 82.6353 48.751 82.0404 50.7753C81.7261 51.845 81.472 52.9323 81.1908 54.0116Z" fill="#978432"/>
<path d="M81.2847 54.0204C81.472 52.9323 81.7261 51.845 82.0404 50.7753C82.6352 48.751 83.2647 46.7368 83.9297 44.6678C84.9549 47.705 85.9301 50.7927 86.9523 54.0291C84.998 54.0291 83.1883 54.0291 81.2847 54.0204Z" fill="#FCDA53"/>
</g>
<defs>
<clipPath id="clip0_3_5">
<rect width="100" height="100" rx="35" fill="white"/>
</clipPath>
</defs>
</svg>
